<svg width="238" height="26" viewBox="0 0 238 26" fill="none" xmlns="http://www.w3.org/2000/svg">
<path d="M3.60719 23.0934H8.00511V5.34831H10.6123V1.13081H1V5.34831H3.60719V23.0934ZM13.6074 17.4956C13.6074 21.3613 15.4703 23.2964 19.2052 23.2964C22.94 23.2964 24.8029 21.3613 24.8029 17.4956V9.97628C24.8029 8.20358 24.3068 6.79173 23.3099 5.74525C22.313 4.69426 20.9463 4.17102 19.2052 4.17102C17.4685 4.17102 16.0973 4.69426 15.1004 5.74525C14.1036 6.79173 13.6074 8.20358 13.6074 9.97628V17.4956ZM19.999 19.4623C19.8276 19.7194 19.5615 19.8457 19.2052 19.8457C18.8488 19.8457 18.5827 19.7194 18.4113 19.4623C18.2444 19.2052 18.1587 18.8578 18.1587 18.4158V9.25908C18.1587 8.16749 18.506 7.62621 19.2052 7.62621C19.9043 7.62621 20.2516 8.16749 20.2516 9.25908V18.4158C20.2516 18.8578 20.1705 19.2052 19.999 19.4623ZM30.2248 21.7402C31.1314 22.7776 32.6019 23.2964 34.6498 23.2964C36.233 23.2964 37.5276 22.8588 38.5245 21.9792C39.5213 21.1042 40.0175 19.8953 40.0175 18.3617V15.0914H35.4662L35.4933 18.2354C35.5113 18.6954 35.4301 19.0698 35.2497 19.3585C35.0693 19.6517 34.8031 19.7961 34.4468 19.7961C34.0859 19.7961 33.8198 19.6472 33.6394 19.3495C33.459 19.0473 33.3687 18.6864 33.3687 18.2624V9.1824C33.3687 8.14494 33.7386 7.62621 34.4693 7.62621C34.8618 7.62621 35.1279 7.75702 35.2632 8.01864C35.3985 8.28477 35.4662 8.66367 35.4662 9.15984V11.7941H40.0175V8.9298C40.0175 7.42774 39.5168 6.25947 38.5109 5.42499C37.505 4.59051 36.2015 4.17102 34.6002 4.17102C33.1342 4.17102 31.984 4.42813 31.1585 4.93783C30.333 5.45205 29.7421 6.21436 29.3948 7.22927C29.0475 8.24417 28.8716 9.55678 28.8716 11.1761V16.9588C28.8716 19.1059 29.3226 20.6982 30.2248 21.7402ZM44.1358 1V23.0934H48.7367V8.9298C48.7367 8.5509 48.8269 8.23515 49.0073 7.96902C49.1832 7.70289 49.4268 7.57208 49.7335 7.57208C50.0944 7.57208 50.365 7.70289 50.5545 7.95549C50.7394 8.2126 50.8341 8.54639 50.8341 8.95235V23.0934H55.3088V8.67269C55.3088 7.27437 54.984 6.17377 54.339 5.37537C53.6894 4.57247 52.7331 4.17102 51.4747 4.17102C50.126 4.17102 49.2148 4.85213 48.7367 6.21887V1H44.1358ZM59.6029 23.0934H64.0279V14.2705L66.8155 23.0934H71.5698L67.9928 12.5068L70.803 4.37851H66.175L64.0279 10.8198V1H59.6029V23.0934ZM75.1378 21.8529C75.6745 22.8182 76.6669 23.2964 78.1148 23.2964C78.7824 23.2964 79.3553 23.0844 79.8424 22.6603C80.3296 22.2318 80.6814 21.6364 80.9024 20.8696V23.0934H85.3545V8.82605C85.3545 7.34203 84.8673 6.19632 83.893 5.3889C82.9232 4.57698 81.6602 4.17102 80.1131 4.17102C78.1689 4.17102 76.7661 4.56345 75.9046 5.34831C75.043 6.13317 74.6145 7.44578 74.6145 9.28614V9.8996H78.9583V8.77643C78.9583 8.39754 79.0485 8.09983 79.229 7.87881C79.4094 7.65778 79.6169 7.54953 79.8559 7.54953C80.1266 7.54953 80.3611 7.68034 80.5596 7.94196C80.7536 8.20809 80.8528 8.58699 80.8528 9.08316V10.9461V11.0002L79.6259 11.4062C78.2276 11.8527 77.1856 12.2542 76.5045 12.6241C75.8234 12.9894 75.2911 13.5668 74.9077 14.3471C74.5243 15.132 74.3303 16.2597 74.3303 17.7257C74.3303 19.5119 74.601 20.8922 75.1378 21.8529ZM80.6092 19.3991C80.4649 19.6788 80.2213 19.8186 79.883 19.8186C79.2154 19.8186 78.8816 19.2683 78.8816 18.1587V15.7545C78.8816 15.0553 79.0395 14.5095 79.3553 14.1171C79.671 13.7247 80.1627 13.4044 80.8257 13.1473V18.3617C80.8257 18.7721 80.7536 19.1195 80.6092 19.3991ZM91.5928 23.0934H95.9907V5.34831H98.5979V1.13081H88.9856V5.34831H91.5928V23.0934ZM101.588 17.4956C101.588 21.3613 103.456 23.2964 107.191 23.2964C110.921 23.2964 112.789 21.3613 112.789 17.4956V9.97628C112.789 8.20358 112.288 6.79173 111.291 5.74525C110.294 4.69426 108.927 4.17102 107.191 4.17102C105.45 4.17102 104.083 4.69426 103.086 5.74525C102.089 6.79173 101.588 8.20358 101.588 9.97628V17.4956ZM107.98 19.4623C107.809 19.7194 107.547 19.8457 107.191 19.8457C106.83 19.8457 106.568 19.7194 106.397 19.4623C106.225 19.2052 106.14 18.8578 106.14 18.4158V9.25908C106.14 8.16749 106.492 7.62621 107.191 7.62621C107.885 7.62621 108.237 8.16749 108.237 9.25908V18.4158C108.237 18.8578 108.152 19.2052 107.98 19.4623ZM117.006 23.0934H121.431V14.2705L124.219 23.0934H128.973L125.396 12.5068L128.206 4.37851H123.578L121.431 10.8198V1H117.006V23.0934ZM132.541 21.8529C133.078 22.8182 134.07 23.2964 135.518 23.2964C136.185 23.2964 136.758 23.0844 137.245 22.6603C137.733 22.2318 138.084 21.6364 138.306 20.8696V23.0934H142.753V8.82605C142.753 7.34203 142.27 6.19632 141.296 5.3889C140.326 4.57698 139.063 4.17102 137.512 4.17102C135.572 4.17102 134.169 4.56345 133.308 5.34831C132.446 6.13317 132.018 7.44578 132.018 9.28614V9.8996H136.361V8.77643C136.361 8.39754 136.452 8.09983 136.632 7.87881C136.812 7.65778 137.02 7.54953 137.259 7.54953C137.53 7.54953 137.764 7.68034 137.963 7.94196C138.157 8.20809 138.256 8.58699 138.256 9.08316V10.9461V11.0002L137.029 11.4062C135.631 11.8527 134.589 12.2542 133.908 12.6241C133.226 12.9894 132.694 13.5668 132.311 14.3471C131.927 15.132 131.733 16.2597 131.733 17.7257C131.733 19.5119 132.004 20.8922 132.541 21.8529ZM138.012 19.3991C137.868 19.6788 137.624 19.8186 137.282 19.8186C136.618 19.8186 136.285 19.2683 136.285 18.1587V15.7545C136.285 15.0553 136.443 14.5095 136.758 14.1171C137.074 13.7247 137.566 13.4044 138.229 13.1473V18.3617C138.229 18.7721 138.157 19.1195 138.012 19.3991ZM146.822 23.0934H151.296V19.3585H146.822V23.0934ZM156.637 21.7402C157.544 22.7776 159.019 23.2964 161.062 23.2964C162.65 23.2964 163.94 22.8588 164.937 21.9792C165.934 21.1042 166.434 19.8953 166.434 18.3617V15.0914H161.883L161.905 18.2354C161.923 18.6954 161.842 19.0698 161.662 19.3585C161.486 19.6517 161.215 19.7961 160.859 19.7961C160.498 19.7961 160.232 19.6472 160.052 19.3495C159.876 19.0473 159.785 18.6864 159.785 18.2624V9.1824C159.785 8.14494 160.151 7.62621 160.882 7.62621C161.274 7.62621 161.54 7.75702 161.675 8.01864C161.811 8.28477 161.883 8.66367 161.883 9.15984V11.7941H166.434V8.9298C166.434 7.42774 165.929 6.25947 164.923 5.42499C163.917 4.59051 162.614 4.17102 161.012 4.17102C159.546 4.17102 158.401 4.42813 157.571 4.93783C156.745 5.45205 156.159 6.21436 155.807 7.22927C155.46 8.24417 155.284 9.55678 155.284 11.1761V16.9588C155.284 19.1059 155.735 20.6982 156.637 21.7402ZM170.395 17.4956C170.395 21.3613 172.262 23.2964 175.997 23.2964C179.727 23.2964 181.595 21.3613 181.595 17.4956V9.97628C181.595 8.20358 181.094 6.79173 180.097 5.74525C179.1 4.69426 177.733 4.17102 175.997 4.17102C174.256 4.17102 172.889 4.69426 171.892 5.74525C170.895 6.79173 170.395 8.20358 170.395 9.97628V17.4956ZM176.786 19.4623C176.615 19.7194 176.353 19.8457 175.997 19.8457C175.636 19.8457 175.374 19.7194 175.203 19.4623C175.032 19.2052 174.946 18.8578 174.946 18.4158V9.25908C174.946 8.16749 175.298 7.62621 175.997 7.62621C176.692 7.62621 177.043 8.16749 177.043 9.25908V18.4158C177.043 18.8578 176.958 19.2052 176.786 19.4623ZM185.812 4.37851V23.0934H190.188V9.87253C190.188 9.24555 190.278 8.70426 190.467 8.24868C190.652 7.79761 190.977 7.57208 191.437 7.57208C191.798 7.57208 192.032 7.73446 192.141 8.05923C192.253 8.384 192.308 8.80801 192.308 9.33576V23.0934H196.782V9.64249C196.782 9.06512 196.877 8.56443 197.062 8.14945C197.251 7.72995 197.558 7.52246 197.982 7.52246C198.6 7.52246 198.907 8.12689 198.907 9.33576V23.0934H203.404L203.458 9.41244C203.458 7.7074 203.169 6.40832 202.601 5.5152C202.028 4.61758 201.009 4.17102 199.543 4.17102C198.726 4.17102 198.086 4.31987 197.626 4.61758C197.166 4.91979 196.751 5.3889 196.372 6.03844C196.151 5.46107 195.772 5.0055 195.235 4.6717C194.698 4.33791 194.062 4.17102 193.331 4.17102C192.429 4.17102 191.73 4.36949 191.234 4.76192C190.738 5.15435 190.39 5.74976 190.188 6.54815V4.37851H185.812Z" fill="white" stroke="black" stroke-width="0.902139"/>
<circle cx="225.5" cy="13.5" r="12" fill="#F8E71C" stroke="black"/>
</svg>
